<?xml version="1.0" encoding="UTF-8"?>
<!DOCTYPE svg PUBLIC "-//W3C//DTD SVG 1.1//EN" "http://www.w3.org/Graphics/SVG/1.1/DTD/svg11.dtd">
<svg xmlns="http://www.w3.org/2000/svg" version="1.1" width="512px" height="512px" style="shape-rendering:geometricPrecision; text-rendering:geometricPrecision; image-rendering:optimizeQuality; fill-rule:evenodd; clip-rule:evenodd" xmlns:xlink="http://www.w3.org/1999/xlink">
<g><path style="opacity:0.997" fill="#1d4b49" d="M 278.5,37.5 C 276.227,38.9222 274.727,40.5889 274,42.5C 273.027,44.3921 272.36,46.3921 272,48.5C 270.636,47.7417 269.469,48.2417 268.5,50C 268.833,50.3333 269.167,50.6667 269.5,51C 266.694,54.2098 264.027,57.5432 261.5,61C 261.833,61.3333 262.167,61.6667 262.5,62C 260.562,64.9822 257.895,67.9822 254.5,71C 254.833,71.3333 255.167,71.6667 255.5,72C 253.167,75 250.833,78 248.5,81C 248.833,81.3333 249.167,81.6667 249.5,82C 246.804,85.1766 243.97,88.3432 241,91.5C 239.95,96.6506 237.116,100.484 232.5,103C 231.766,107.555 229.266,111.388 225,114.5C 224.241,117.785 222.908,120.785 221,123.5C 219.636,122.742 218.469,123.242 217.5,125C 218.451,125.718 218.617,126.551 218,127.5C 216.745,128.211 215.579,129.044 214.5,130C 214.833,130.333 215.167,130.667 215.5,131C 212.7,133.065 211.033,135.398 210.5,138C 208.474,139.594 206.474,141.094 204.5,142.5C 162.496,135.584 132.33,151.25 114,189.5C 107.637,208.703 108.137,227.703 115.5,246.5C 111.123,238.75 106.956,230.75 103,222.5C 100.567,215.032 98.0669,207.698 95.5,200.5C 94.0033,194.513 92.5033,188.513 91,182.5C 90.4177,176.083 89.5843,169.75 88.5,163.5C 88.2446,153.807 88.578,144.14 89.5,134.5C 91.6486,123.883 94.6486,113.55 98.5,103.5C 148.087,54.0724 208.087,32.0724 278.5,37.5 Z"/></g>
<g><path style="opacity:0.998" fill="#2c6764" d="M 303.5,42.5 C 306.727,42.6761 309.727,43.3428 312.5,44.5C 311.737,45.2679 310.737,45.7679 309.5,46C 308.893,50.634 306.559,54.634 302.5,58C 302.833,58.3333 303.167,58.6667 303.5,59C 302.167,60 300.833,61 299.5,62C 299.5,63 299.5,64 299.5,65C 295.739,68.9648 292.073,73.6314 288.5,79C 288.833,79.3333 289.167,79.6667 289.5,80C 286.325,82.843 283.491,86.0097 281,89.5C 277.301,95.8534 273.634,102.187 270,108.5C 266.793,109.635 265.459,111.635 266,114.5C 263.825,117.376 261.325,119.876 258.5,122C 258.833,122.333 259.167,122.667 259.5,123C 258.21,125.292 256.543,127.292 254.5,129C 254.833,129.333 255.167,129.667 255.5,130C 254.069,130.465 252.903,131.299 252,132.5C 247.372,141.581 241.872,149.581 235.5,156.5C 232.797,154.819 230.131,153.153 227.5,151.5C 227.775,149.242 228.775,148.908 230.5,150.5C 255.394,113.565 279.727,77.565 303.5,42.5 Z"/></g>
<g><path style="opacity:1" fill="#31716f" d="M 312.5,44.5 C 317.784,45.5946 322.784,47.2613 327.5,49.5C 326.293,50.1888 324.959,50.3554 323.5,50C 324.059,50.7247 324.392,51.5581 324.5,52.5C 297.889,91.1557 272.223,129.156 247.5,166.5C 243.767,162.76 239.767,159.427 235.5,156.5C 241.872,149.581 247.372,141.581 252,132.5C 252.903,131.299 254.069,130.465 255.5,130C 255.167,129.667 254.833,129.333 254.5,129C 256.543,127.292 258.21,125.292 259.5,123C 259.167,122.667 258.833,122.333 258.5,122C 261.325,119.876 263.825,117.376 266,114.5C 265.459,111.635 266.793,109.635 270,108.5C 273.634,102.187 277.301,95.8534 281,89.5C 283.491,86.0097 286.325,82.843 289.5,80C 289.167,79.6667 288.833,79.3333 288.5,79C 292.073,73.6314 295.739,68.9648 299.5,65C 299.5,64 299.5,63 299.5,62C 300.833,61 302.167,60 303.5,59C 303.167,58.6667 302.833,58.3333 302.5,58C 306.559,54.634 308.893,50.634 309.5,46C 310.737,45.7679 311.737,45.2679 312.5,44.5 Z"/></g>
<g><path style="opacity:0.998" fill="#357977" d="M 327.5,49.5 C 330.715,49.9049 333.715,50.9049 336.5,52.5C 334.954,52.7239 333.287,53.0573 331.5,53.5C 331.709,54.086 332.043,54.586 332.5,55C 329.902,57.658 327.402,60.4914 325,63.5C 308.186,90.5058 291.353,115.339 274.5,138C 274.833,138.333 275.167,138.667 275.5,139C 267.919,148.908 260.752,159.075 254,169.5C 252.608,167.158 251.775,167.158 251.5,169.5C 250.128,168.488 248.795,167.488 247.5,166.5C 272.223,129.156 297.889,91.1557 324.5,52.5C 324.392,51.5581 324.059,50.7247 323.5,50C 324.959,50.3554 326.293,50.1888 327.5,49.5 Z"/></g>
<g><path style="opacity:0.999" fill="#39807d" d="M 336.5,52.5 C 338.284,52.8925 339.95,53.5592 341.5,54.5C 323.94,80.4454 305.773,107.779 287,136.5C 285.5,138 284,139.5 282.5,141C 282.833,141.333 283.167,141.667 283.5,142C 280.437,143.066 278.937,145.233 279,148.5C 276.501,151.296 274.001,154.129 271.5,157C 272.094,157.464 272.761,157.631 273.5,157.5C 267.43,162.063 261.764,167.229 256.5,173C 254.228,172.923 252.562,171.757 251.5,169.5C 251.775,167.158 252.608,167.158 254,169.5C 260.752,159.075 267.919,148.908 275.5,139C 275.167,138.667 274.833,138.333 274.5,138C 291.353,115.339 308.186,90.5058 325,63.5C 327.402,60.4914 329.902,57.658 332.5,55C 332.043,54.586 331.709,54.086 331.5,53.5C 333.287,53.0573 334.954,52.7239 336.5,52.5 Z"/></g>
<g><path style="opacity:1" fill="#3e8a87" d="M 341.5,54.5 C 345.813,55.9899 349.813,57.9899 353.5,60.5C 352.448,60.3505 351.448,60.5172 350.5,61C 353.905,61.9669 354.405,63.8002 352,66.5C 346.723,73.8749 341.056,81.5416 335,89.5C 334.889,92.9441 333.223,95.2775 330,96.5C 326.397,102.944 322.564,109.278 318.5,115.5C 313.088,123.428 307.421,131.262 301.5,139C 302.094,139.464 302.761,139.631 303.5,139.5C 300.283,141.417 296.949,143.251 293.5,145C 292.748,145.671 292.414,146.504 292.5,147.5C 285.72,150.056 279.386,153.389 273.5,157.5C 272.761,157.631 272.094,157.464 271.5,157C 274.001,154.129 276.501,151.296 279,148.5C 278.937,145.233 280.437,143.066 283.5,142C 283.167,141.667 282.833,141.333 282.5,141C 284,139.5 285.5,138 287,136.5C 305.773,107.779 323.94,80.4454 341.5,54.5 Z"/></g>
<g><path style="opacity:0.995" fill="#459693" d="M 353.5,60.5 C 358.827,62.1588 363.493,64.8255 367.5,68.5C 366.761,68.369 366.094,68.5357 365.5,69C 366.554,70.3876 366.72,71.8876 366,73.5C 358.032,84.0949 350.865,94.5949 344.5,105C 341.717,109.451 338.55,113.617 335,117.5C 334.667,118.833 334.333,120.167 334,121.5C 330.834,124.932 327.668,128.432 324.5,132C 332.011,132.171 339.345,132.671 346.5,133.5C 331.645,132.155 317.312,134.155 303.5,139.5C 302.761,139.631 302.094,139.464 301.5,139C 307.421,131.262 313.088,123.428 318.5,115.5C 322.564,109.278 326.397,102.944 330,96.5C 333.223,95.2775 334.889,92.9441 335,89.5C 341.056,81.5416 346.723,73.8749 352,66.5C 354.405,63.8002 353.905,61.9669 350.5,61C 351.448,60.5172 352.448,60.3505 353.5,60.5 Z"/></g>
<g><path style="opacity:1" fill="#4ca5a1" d="M 367.5,68.5 C 374.197,71.5107 380.197,75.5107 385.5,80.5C 382.704,82.128 380.371,84.2946 378.5,87C 378.833,87.3333 379.167,87.6667 379.5,88C 369.889,100.281 361.056,113.115 353,126.5C 351.491,128.71 349.658,130.543 347.5,132C 352.076,132.75 356.409,133.917 360.5,135.5C 355.817,134.926 351.15,134.26 346.5,133.5C 339.345,132.671 332.011,132.171 324.5,132C 327.668,128.432 330.834,124.932 334,121.5C 334.333,120.167 334.667,118.833 335,117.5C 338.55,113.617 341.717,109.451 344.5,105C 350.865,94.5949 358.032,84.0949 366,73.5C 366.72,71.8876 366.554,70.3876 365.5,69C 366.094,68.5357 366.761,68.369 367.5,68.5 Z"/></g>
<g><path style="opacity:1" fill="#265c5a" d="M 288.5,39.5 C 293.638,39.9664 298.638,40.9664 303.5,42.5C 279.727,77.565 255.394,113.565 230.5,150.5C 228.775,148.908 227.775,149.242 227.5,151.5C 224.101,149.801 220.768,148.134 217.5,146.5C 216.942,145.21 215.942,144.377 214.5,144C 218.789,142.043 222.123,139.043 224.5,135C 223.72,133.927 223.887,132.76 225,131.5C 229.793,124.375 234.96,117.541 240.5,111C 240.167,110.667 239.833,110.333 239.5,110C 241.74,106.752 244.407,103.752 247.5,101C 247.167,100.667 246.833,100.333 246.5,100C 250.502,96.9173 252.835,93.2506 253.5,89C 255.959,88.276 256.959,86.9427 256.5,85C 266.682,71.4909 276.515,57.6576 286,43.5C 286.456,42.2559 285.956,41.4226 284.5,41C 286.058,40.79 287.391,40.29 288.5,39.5 Z"/></g>
<g><path style="opacity:1" fill="#54b2ae" d="M 385.5,80.5 C 424.499,109.207 451.165,146.874 465.5,193.5C 463.908,194.602 463.075,193.935 463,191.5C 462.821,196.829 460.488,201.163 456,204.5C 454.499,209.002 451.999,212.835 448.5,216C 448.833,216.333 449.167,216.667 449.5,217C 445.237,221.266 441.737,226.099 439,231.5C 437.607,234.125 436.441,234.125 435.5,231.5C 432.632,208.104 424.465,186.771 411,167.5C 397.497,151.345 380.664,140.679 360.5,135.5C 356.409,133.917 352.076,132.75 347.5,132C 349.658,130.543 351.491,128.71 353,126.5C 361.056,113.115 369.889,100.281 379.5,88C 379.167,87.6667 378.833,87.3333 378.5,87C 380.371,84.2946 382.704,82.128 385.5,80.5 Z"/></g>
<g><path style="opacity:1" fill="#215350" d="M 278.5,37.5 C 281.876,38.0761 285.209,38.7428 288.5,39.5C 287.391,40.29 286.058,40.79 284.5,41C 285.956,41.4226 286.456,42.2559 286,43.5C 276.515,57.6576 266.682,71.4909 256.5,85C 256.959,86.9427 255.959,88.276 253.5,89C 252.835,93.2506 250.502,96.9173 246.5,100C 246.833,100.333 247.167,100.667 247.5,101C 244.407,103.752 241.74,106.752 239.5,110C 239.833,110.333 240.167,110.667 240.5,111C 234.96,117.541 229.793,124.375 225,131.5C 223.887,132.76 223.72,133.927 224.5,135C 222.123,139.043 218.789,142.043 214.5,144C 215.942,144.377 216.942,145.21 217.5,146.5C 213.167,145.167 208.833,143.833 204.5,142.5C 206.474,141.094 208.474,139.594 210.5,138C 211.033,135.398 212.7,133.065 215.5,131C 215.167,130.667 214.833,130.333 214.5,130C 215.579,129.044 216.745,128.211 218,127.5C 218.617,126.551 218.451,125.718 217.5,125C 218.469,123.242 219.636,122.742 221,123.5C 222.908,120.785 224.241,117.785 225,114.5C 229.266,111.388 231.766,107.555 232.5,103C 237.116,100.484 239.95,96.6506 241,91.5C 243.97,88.3432 246.804,85.1766 249.5,82C 249.167,81.6667 248.833,81.3333 248.5,81C 250.833,78 253.167,75 255.5,72C 255.167,71.6667 254.833,71.3333 254.5,71C 257.895,67.9822 260.562,64.9822 262.5,62C 262.167,61.6667 261.833,61.3333 261.5,61C 264.027,57.5432 266.694,54.2098 269.5,51C 269.167,50.6667 268.833,50.3333 268.5,50C 269.469,48.2417 270.636,47.7417 272,48.5C 272.36,46.3921 273.027,44.3921 274,42.5C 274.727,40.5889 276.227,38.9222 278.5,37.5 Z"/></g>
<g><path style="opacity:1" fill="#1e4c4a" d="M 346.5,133.5 C 351.15,134.26 355.817,134.926 360.5,135.5C 380.664,140.679 397.497,151.345 411,167.5C 424.465,186.771 432.632,208.104 435.5,231.5C 436.807,245.501 436.807,259.501 435.5,273.5C 433.481,288.931 430.814,304.264 427.5,319.5C 424.925,325.225 422.925,331.225 421.5,337.5C 420.883,337.611 420.383,337.944 420,338.5C 419.691,337.234 419.191,336.067 418.5,335C 418.833,334.667 419.167,334.333 419.5,334C 418.069,333.535 416.903,332.701 416,331.5C 411.084,323.442 405.751,315.109 400,306.5C 393.506,302.183 389.506,296.183 388,288.5C 386.559,287.13 384.892,286.13 383,285.5C 382.217,281.817 381.05,278.317 379.5,275C 379.773,273.467 380.106,271.967 380.5,270.5C 390.542,257.075 397.375,242.075 401,225.5C 402.756,184.274 384.256,156.774 345.5,143C 327.282,138.626 309.615,140.126 292.5,147.5C 292.414,146.504 292.748,145.671 293.5,145C 296.949,143.251 300.283,141.417 303.5,139.5C 317.312,134.155 331.645,132.155 346.5,133.5 Z"/></g>
<g><path style="opacity:1" fill="#58b1ae" d="M 98.5,103.5 C 94.6486,113.55 91.6486,123.883 89.5,134.5C 88.578,144.14 88.2446,153.807 88.5,163.5C 87.5595,166.125 86.3928,166.125 85,163.5C 80.2851,156.796 75.4517,149.796 70.5,142.5C 67.8934,145.428 65.5601,148.428 63.5,151.5C 66.4681,144.899 69.9681,138.566 74,132.5C 81.2347,122.02 89.4014,112.354 98.5,103.5 Z"/></g>
<g><path style="opacity:1" fill="#6ebcb8" d="M 88.5,163.5 C 89.5843,169.75 90.4177,176.083 91,182.5C 92.5033,188.513 94.0033,194.513 95.5,200.5C 93.5644,200.184 91.7311,198.85 90,196.5C 81.3333,183.833 72.6667,171.167 64,158.5C 63.6667,157.167 63.3333,155.833 63,154.5C 61.8608,157.823 60.0275,160.49 57.5,162.5C 58.7417,158.345 60.7417,154.678 63.5,151.5C 65.5601,148.428 67.8934,145.428 70.5,142.5C 75.4517,149.796 80.2851,156.796 85,163.5C 86.3928,166.125 87.5595,166.125 88.5,163.5 Z"/></g>
<g><path style="opacity:1" fill="#80c5c1" d="M 95.5,200.5 C 98.0669,207.698 100.567,215.032 103,222.5C 106.956,230.75 111.123,238.75 115.5,246.5C 115.599,249.639 116.932,251.973 119.5,253.5C 134.505,276.855 152.505,297.855 173.5,316.5C 184.18,336.477 196.514,355.477 210.5,373.5C 231.073,404.972 251.906,436.305 273,467.5C 273.979,469.32 275.479,470.487 277.5,471C 273.759,472.014 270.093,472.847 266.5,473.5C 263.833,473.5 261.167,473.5 258.5,473.5C 259.501,472.211 259.334,470.878 258,469.5C 190.027,370.145 122.694,270.145 56,169.5C 54.9605,171.746 53.7938,173.913 52.5,176C 53.3547,178.436 54.0213,180.936 54.5,183.5C 52.2492,182.135 50.2492,182.469 48.5,184.5C 50.3971,176.707 53.3971,169.374 57.5,162.5C 60.0275,160.49 61.8608,157.823 63,154.5C 63.3333,155.833 63.6667,157.167 64,158.5C 72.6667,171.167 81.3333,183.833 90,196.5C 91.7311,198.85 93.5644,200.184 95.5,200.5 Z"/></g>
<g><path style="opacity:1" fill="#90ccc8" d="M 258.5,473.5 C 251.167,473.5 243.833,473.5 236.5,473.5C 236.5,472.833 236.833,472.5 237.5,472.5C 241.182,472.665 244.848,472.499 248.5,472C 188.028,381.872 127.195,292.039 66,202.5C 62.3746,196.041 58.5413,189.708 54.5,183.5C 54.0213,180.936 53.3547,178.436 52.5,176C 53.7938,173.913 54.9605,171.746 56,169.5C 122.694,270.145 190.027,370.145 258,469.5C 259.334,470.878 259.501,472.211 258.5,473.5 Z"/></g>
<g><path style="opacity:1" fill="#9dd2ce" d="M 54.5,183.5 C 58.5413,189.708 62.3746,196.041 66,202.5C 127.195,292.039 188.028,381.872 248.5,472C 244.848,472.499 241.182,472.665 237.5,472.5C 173.832,378.495 110.165,284.495 46.5,190.5C 46.9707,188.421 47.6373,186.421 48.5,184.5C 50.2492,182.469 52.2492,182.135 54.5,183.5 Z"/></g>
<g><path style="opacity:0.955" fill="#54b4b0" d="M 231.5,200.5 C 247.837,200.333 264.17,200.5 280.5,201C 281.486,211.084 281.819,221.251 281.5,231.5C 291.5,231.5 301.5,231.5 311.5,231.5C 311.5,248.5 311.5,265.5 311.5,282.5C 301.5,282.5 291.5,282.5 281.5,282.5C 281.5,292.5 281.5,302.5 281.5,312.5C 264.5,312.5 247.5,312.5 230.5,312.5C 230.5,302.5 230.5,292.5 230.5,282.5C 220.478,282.832 210.478,282.499 200.5,281.5C 199.172,264.97 199.172,248.47 200.5,232C 210.494,231.5 220.494,231.334 230.5,231.5C 230.192,221.085 230.525,210.751 231.5,200.5 Z M 239.5,209.5 C 250.5,209.5 261.5,209.5 272.5,209.5C 272.334,219.506 272.5,229.506 273,239.5C 283.084,240.486 293.251,240.819 303.5,240.5C 303.5,251.5 303.5,262.5 303.5,273.5C 293.167,273.5 282.833,273.5 272.5,273.5C 272.5,283.833 272.5,294.167 272.5,304.5C 261.5,304.5 250.5,304.5 239.5,304.5C 239.5,294.167 239.5,283.833 239.5,273.5C 229.167,273.5 218.833,273.5 208.5,273.5C 208.5,262.5 208.5,251.5 208.5,240.5C 218.506,240.666 228.506,240.5 238.5,240C 239.486,229.916 239.819,219.749 239.5,209.5 Z"/></g>
<g><path style="opacity:1" fill="#b0dad6" d="M 43.5,202.5 C 45.0744,202.937 46.2411,203.937 47,205.5C 105.793,294.442 165.293,382.608 225.5,470C 222.854,470.497 220.187,470.664 217.5,470.5C 137.903,454.742 82.403,409.409 51,334.5C 39.5622,304.536 35.0622,273.536 37.5,241.5C 39.3098,231.697 40.6432,221.697 41.5,211.5C 41.6997,208.37 42.3664,205.37 43.5,202.5 Z"/></g>
<g><path style="opacity:0.993" fill="#54b3af" d="M 244.5,213.5 C 252.167,213.5 259.833,213.5 267.5,213.5C 267.5,223.833 267.5,234.167 267.5,244.5C 277.833,244.5 288.167,244.5 298.5,244.5C 298.5,252.5 298.5,260.5 298.5,268.5C 288.167,268.5 277.833,268.5 267.5,268.5C 267.5,278.833 267.5,289.167 267.5,299.5C 259.5,299.5 251.5,299.5 243.5,299.5C 243.5,289.167 243.5,278.833 243.5,268.5C 233.5,268.5 223.5,268.5 213.5,268.5C 213.5,260.5 213.5,252.5 213.5,244.5C 223.5,244.5 233.5,244.5 243.5,244.5C 243.192,234.085 243.525,223.751 244.5,213.5 Z"/></g>
<g><path style="opacity:1" fill="#74c0bc" d="M 465.5,193.5 C 468.269,203.679 470.269,214.012 471.5,224.5C 470.778,224.082 470.278,223.416 470,222.5C 470.012,228.799 467.845,233.632 463.5,237C 463.957,237.414 464.291,237.914 464.5,238.5C 459.932,241.314 457.098,245.314 456,250.5C 454.846,251.743 453.512,252.743 452,253.5C 451.727,255.329 450.893,256.829 449.5,258C 449.957,258.414 450.291,258.914 450.5,259.5C 445.957,262.928 442.623,267.262 440.5,272.5C 439.522,272.977 438.689,273.643 438,274.5C 437.329,273.748 436.496,273.414 435.5,273.5C 436.807,259.501 436.807,245.501 435.5,231.5C 436.441,234.125 437.607,234.125 439,231.5C 441.737,226.099 445.237,221.266 449.5,217C 449.167,216.667 448.833,216.333 448.5,216C 451.999,212.835 454.499,209.002 456,204.5C 460.488,201.163 462.821,196.829 463,191.5C 463.075,193.935 463.908,194.602 465.5,193.5 Z"/></g>
<g><path style="opacity:0.684" fill="#80aaa7" d="M 41.5,211.5 C 40.6432,221.697 39.3098,231.697 37.5,241.5C 37.2641,231.159 38.5974,221.159 41.5,211.5 Z"/></g>
<g><path style="opacity:1" fill="#40716f" d="M 115.5,246.5 C 117.588,248.336 118.921,250.669 119.5,253.5C 116.932,251.973 115.599,249.639 115.5,246.5 Z"/></g>
<g><path style="opacity:0.998" fill="#8ccbc7" d="M 471.5,224.5 C 472.317,226.969 472.817,229.635 473,232.5C 473.5,241.494 473.666,250.494 473.5,259.5C 472.504,259.414 471.671,259.748 471,260.5C 457.94,280.869 444.273,301.536 430,322.5C 429.623,321.058 428.79,320.058 427.5,319.5C 430.814,304.264 433.481,288.931 435.5,273.5C 436.496,273.414 437.329,273.748 438,274.5C 438.689,273.643 439.522,272.977 440.5,272.5C 442.623,267.262 445.957,262.928 450.5,259.5C 450.291,258.914 449.957,258.414 449.5,258C 450.893,256.829 451.727,255.329 452,253.5C 453.512,252.743 454.846,251.743 456,250.5C 457.098,245.314 459.932,241.314 464.5,238.5C 464.291,237.914 463.957,237.414 463.5,237C 467.845,233.632 470.012,228.799 470,222.5C 470.278,223.416 470.778,224.082 471.5,224.5 Z"/></g>
<g><path style="opacity:1" fill="#a9d7d3" d="M 46.5,190.5 C 110.165,284.495 173.832,378.495 237.5,472.5C 236.833,472.5 236.5,472.833 236.5,473.5C 229.907,473.322 223.574,472.322 217.5,470.5C 220.187,470.664 222.854,470.497 225.5,470C 165.293,382.608 105.793,294.442 47,205.5C 46.2411,203.937 45.0744,202.937 43.5,202.5C 43.686,198.279 44.686,194.279 46.5,190.5 Z"/></g>
<g><path style="opacity:1" fill="#235654" d="M 380.5,270.5 C 380.106,271.967 379.773,273.467 379.5,275C 381.05,278.317 382.217,281.817 383,285.5C 384.892,286.13 386.559,287.13 388,288.5C 389.506,296.183 393.506,302.183 400,306.5C 405.751,315.109 411.084,323.442 416,331.5C 416.903,332.701 418.069,333.535 419.5,334C 419.167,334.333 418.833,334.667 418.5,335C 419.191,336.067 419.691,337.234 420,338.5C 420.383,337.944 420.883,337.611 421.5,337.5C 419.5,342.5 417.5,347.5 415.5,352.5C 409.521,342.562 403.021,332.895 396,323.5C 395.667,321.167 395.333,318.833 395,316.5C 392.299,312.466 388.966,309.132 385,306.5C 381.249,300.668 377.249,295.001 373,289.5C 373.081,287.015 372.914,284.681 372.5,282.5C 374.758,279.643 376.758,276.643 378.5,273.5C 378.427,271.973 379.094,270.973 380.5,270.5 Z"/></g>
<g><path style="opacity:0.998" fill="#a0d3cf" d="M 473.5,259.5 C 473.829,269.593 473.162,279.593 471.5,289.5C 470.698,288.048 470.198,286.382 470,284.5C 469.254,288.896 468.254,293.23 467,297.5C 453.764,317.413 440.098,337.08 426,356.5C 409.832,382.091 393.165,406.757 376,430.5C 374.872,432.345 374.372,434.345 374.5,436.5C 371.243,437.8 368.243,439.634 365.5,442C 366.094,442.464 366.761,442.631 367.5,442.5C 358.595,448.787 348.928,453.787 338.5,457.5C 337.127,457.657 335.793,457.49 334.5,457C 338.155,456.186 340.488,454.019 341.5,450.5C 344.253,449.502 346.253,447.669 347.5,445C 346.944,444.617 346.611,444.117 346.5,443.5C 359.437,433.565 371.103,422.231 381.5,409.5C 385.221,405.112 388.555,400.445 391.5,395.5C 393.735,392.709 395.735,389.709 397.5,386.5C 400.335,382.836 402.668,378.836 404.5,374.5C 406.405,371.696 408.071,368.696 409.5,365.5C 411.774,361.286 413.774,356.953 415.5,352.5C 417.5,347.5 419.5,342.5 421.5,337.5C 422.925,331.225 424.925,325.225 427.5,319.5C 428.79,320.058 429.623,321.058 430,322.5C 444.273,301.536 457.94,280.869 471,260.5C 471.671,259.748 472.504,259.414 473.5,259.5 Z"/></g>
<g><path style="opacity:1" fill="#2b6664" d="M 372.5,282.5 C 372.914,284.681 373.081,287.015 373,289.5C 377.249,295.001 381.249,300.668 385,306.5C 388.966,309.132 392.299,312.466 395,316.5C 395.333,318.833 395.667,321.167 396,323.5C 403.021,332.895 409.521,342.562 415.5,352.5C 413.774,356.953 411.774,361.286 409.5,365.5C 406.902,363.696 404.735,361.362 403,358.5C 389.207,338.079 375.54,317.746 362,297.5C 361.48,295.711 361.813,294.044 363,292.5C 366.399,289.271 369.565,285.938 372.5,282.5 Z"/></g>
<g><path style="opacity:1" fill="#31726f" d="M 378.5,273.5 C 376.758,276.643 374.758,279.643 372.5,282.5C 369.565,285.938 366.399,289.271 363,292.5C 361.813,294.044 361.48,295.711 362,297.5C 375.54,317.746 389.207,338.079 403,358.5C 404.735,361.362 406.902,363.696 409.5,365.5C 408.071,368.696 406.405,371.696 404.5,374.5C 389.837,352.558 375.337,331.558 361,311.5C 359.229,308.067 357.396,304.734 355.5,301.5C 356.925,300.078 357.925,298.411 358.5,296.5C 365.196,288.808 371.862,281.141 378.5,273.5 Z"/></g>
<g><path style="opacity:1" fill="#387e7b" d="M 355.5,301.5 C 357.396,304.734 359.229,308.067 361,311.5C 375.337,331.558 389.837,352.558 404.5,374.5C 402.668,378.836 400.335,382.836 397.5,386.5C 382.107,361.24 365.607,336.573 348,312.5C 347.333,311.167 347.333,309.833 348,308.5C 350.37,305.961 352.87,303.628 355.5,301.5 Z"/></g>
<g><path style="opacity:1" fill="#3e8a87" d="M 358.5,296.5 C 357.925,298.411 356.925,300.078 355.5,301.5C 352.87,303.628 350.37,305.961 348,308.5C 347.333,309.833 347.333,311.167 348,312.5C 365.607,336.573 382.107,361.24 397.5,386.5C 395.735,389.709 393.735,392.709 391.5,395.5C 374.53,369.591 357.196,343.924 339.5,318.5C 339.863,317.817 340.196,317.15 340.5,316.5C 340.833,315.167 341.167,313.833 341.5,312.5C 347.167,307.167 352.833,301.833 358.5,296.5 Z"/></g>
<g><path style="opacity:0.999" fill="#afdad6" d="M 471.5,289.5 C 461.1,349.167 431.767,397.001 383.5,433C 378.276,436.441 372.943,439.608 367.5,442.5C 366.761,442.631 366.094,442.464 365.5,442C 368.243,439.634 371.243,437.8 374.5,436.5C 374.372,434.345 374.872,432.345 376,430.5C 393.165,406.757 409.832,382.091 426,356.5C 440.098,337.08 453.764,317.413 467,297.5C 468.254,293.23 469.254,288.896 470,284.5C 470.198,286.382 470.698,288.048 471.5,289.5 Z"/></g>
<g><path style="opacity:1" fill="#469995" d="M 340.5,316.5 C 340.196,317.15 339.863,317.817 339.5,318.5C 357.196,343.924 374.53,369.591 391.5,395.5C 388.555,400.445 385.221,405.112 381.5,409.5C 363.618,383.46 345.618,356.794 327.5,329.5C 331.596,324.737 335.93,320.404 340.5,316.5 Z"/></g>
<g><path style="opacity:1" fill="#6fbeba" d="M 173.5,316.5 C 184.068,326.279 194.401,336.279 204.5,346.5C 206.383,348.631 207.05,350.964 206.5,353.5C 233.202,391.23 259.202,429.564 284.5,468.5C 288.522,469.236 292.522,468.903 296.5,467.5C 297.11,468.391 297.443,469.391 297.5,470.5C 287.252,472.345 276.918,473.345 266.5,473.5C 270.093,472.847 273.759,472.014 277.5,471C 275.479,470.487 273.979,469.32 273,467.5C 251.906,436.305 231.073,404.972 210.5,373.5C 196.514,355.477 184.18,336.477 173.5,316.5 Z"/></g>
<g><path style="opacity:1" fill="#53b2ae" d="M 341.5,312.5 C 341.167,313.833 340.833,315.167 340.5,316.5C 335.93,320.404 331.596,324.737 327.5,329.5C 345.618,356.794 363.618,383.46 381.5,409.5C 371.103,422.231 359.437,433.565 346.5,443.5C 332.932,452.951 318.265,460.284 302.5,465.5C 300.394,465.321 298.728,464.321 297.5,462.5C 288.812,449.641 280.312,436.641 272,423.5C 267.382,417.227 262.549,411.227 257.5,405.5C 259.733,400.701 262.233,396.035 265,391.5C 278.055,374.773 292.221,358.94 307.5,344C 319.305,334.03 330.638,323.53 341.5,312.5 Z"/></g>
<g><path style="opacity:1" fill="#61b8b4" d="M 204.5,346.5 C 225.255,364.077 242.088,384.744 255,408.5C 255.852,407.429 256.685,406.429 257.5,405.5C 262.549,411.227 267.382,417.227 272,423.5C 280.312,436.641 288.812,449.641 297.5,462.5C 298.728,464.321 300.394,465.321 302.5,465.5C 300.786,466.738 298.786,467.405 296.5,467.5C 292.522,468.903 288.522,469.236 284.5,468.5C 259.202,429.564 233.202,391.23 206.5,353.5C 207.05,350.964 206.383,348.631 204.5,346.5 Z"/></g>
<g><path style="opacity:1" fill="#8bcbc6" d="M 346.5,443.5 C 346.611,444.117 346.944,444.617 347.5,445C 346.253,447.669 344.253,449.502 341.5,450.5C 340.488,454.019 338.155,456.186 334.5,457C 335.793,457.49 337.127,457.657 338.5,457.5C 325.344,463.218 311.678,467.551 297.5,470.5C 297.443,469.391 297.11,468.391 296.5,467.5C 298.786,467.405 300.786,466.738 302.5,465.5C 318.265,460.284 332.932,452.951 346.5,443.5 Z"/></g>
</svg>
